<?xml version="1.0" encoding="UTF-8"?>
<svg width="94px" height="95px" viewBox="0 0 94 95" version="1.1" xmlns="http://www.w3.org/2000/svg" xmlns:xlink="http://www.w3.org/1999/xlink">
    <!-- Generator: Sketch 53.2 (72643) - https://sketchapp.com -->
    <title>Untitled</title>
    <desc>Created with Sketch.</desc>
    <g id="Page-1" stroke="none" stroke-width="1" fill="none" fill-rule="evenodd">
        <g id="icon-mask" transform="translate(-28.000000, -38.000000)" fill="#284A9F" fill-rule="nonzero">
            <path d="M113.9,38 L83.28,38 C81.3066095,38.0488138 79.4345166,38.8840552 78.08,40.32 L30.15,88.71 C27.3071809,91.5626729 27.3071809,96.1773271 30.15,99.03 L61.38,130.4 C64.26004,133.252114 68.89996,133.252114 71.78,130.4 L119.17,83.06 C120.560419,81.6639274 121.365239,79.7895901 121.42,77.82 L121.42,45.73 C121.320869,41.583104 118.042594,38.213281 113.9,38 Z M74.71,102 L60.51,102 C58.8531458,102 57.51,100.656854 57.51,99 L57.51,84.76 C57.51,83.1031458 58.8531458,81.76 60.51,81.76 C62.1668542,81.76 63.51,83.1031458 63.51,84.76 L63.51,96 L74.71,96 C76.3668542,96 77.71,97.3431458 77.71,99 C77.71,100.656854 76.3668542,102 74.71,102 L74.71,102 Z M87.25,98.61 C85.7905389,99.3433874 84.0125583,98.7744336 83.25,97.33 L69,69.89 C68.2378471,68.4181612 68.8131612,66.607153 70.2850001,65.8450001 C71.7568389,65.0828472 73.567847,65.6581612 74.33,67.13 L88.53,94.55 C89.2901705,96.0192475 88.7175546,97.8265664 87.25,98.59 L87.25,98.61 Z M99,78.67 C99,80.3268542 97.6568542,81.67 96,81.67 C94.3431458,81.67 93,80.3268542 93,78.67 L93,67.45 L81.81,67.45 C80.1531458,67.45 78.81,66.1068542 78.81,64.45 C78.81,62.7931458 80.1531458,61.45 81.81,61.45 L96,61.45 C97.6568542,61.45 99,62.7931458 99,64.45 L99,78.67 Z M110.71,53.28 C108.186059,53.28 106.14,51.2339413 106.14,48.71 C106.14,46.1860587 108.186059,44.14 110.71,44.14 C113.233941,44.14 115.28,46.1860587 115.28,48.71 C115.280006,51.2300412 113.240035,53.2744857 110.72,53.28 L110.71,53.28 Z" id="Shape"></path>
        </g>
    </g>
</svg>