<?xml version="1.0" encoding="UTF-8"?>
<svg width="165px" height="165px" viewBox="0 0 165 165" version="1.1" xmlns="http://www.w3.org/2000/svg" xmlns:xlink="http://www.w3.org/1999/xlink">
    <!-- Generator: Sketch 53.2 (72643) - https://sketchapp.com -->
    <title>icon</title>
    <desc>Created with Sketch.</desc>
    <g id="Page-1" stroke="none" stroke-width="1" fill="none" fill-rule="evenodd">
        <g id="icon">
            <path d="M0,82.5006515 C0,36.9347185 36.9363127,0 82.4986972,0 C128.063687,0 165,36.9347185 165,82.5006515 C165,128.061373 128.063687,165 82.4986972,165 C36.9363127,165 0,128.061373 0,82.5006515 Z" id="Shape" fill="#284A9F" fill-rule="nonzero"></path>
            <g id="tag" transform="translate(25.000000, 34.000000)">
                <path d="M140,50.9889058 C140,46.3659003 99.8558889,2.81696587 99.1824282,2.15422356 L54.3407315,1.01550388 C39.3045818,16.8179267 28.1587324,28.6779033 20.9031836,36.5954337 C17.2480109,40.5840969 1.0190383,45.0862149 0.115726062,55.6119113 C-0.470924079,62.4477549 -0.0885651976,65.6908756 33.3672986,100.680286 C66.8231623,135.669695 57.4633414,130.699784 68.2499009,130.025156 C78.7570465,129.368003 83.0715014,128.100756 100.994537,117.931338 C104.902889,115.713763 113.202881,108.909953 116.579979,105.46811 C124.519078,97.3768055 128.86832,89.6028457 132.64889,81.1401481 C137.19976,70.9531589 140,55.6119113 140,50.9889058 Z" id="Shape" fill="#000000" fill-rule="nonzero" opacity="0.2"></path>
                <path d="M96.3270996,50.1513508 L48.8981825,97.5165154 C44.8770352,101.541006 38.2782293,101.541006 34.257082,97.5165154 L3.01586049,66.1461231 C-1.00528683,62.121632 -1.00528683,55.620531 3.01586049,51.5960399 L50.9603093,3.19895447 C52.9193298,1.23830496 55.4969883,0 58.2808596,0 L88.903443,0 C94.5742918,0 99.4202899,5.05641191 99.4202899,10.7319763 L99.4202899,42.8247131 C99.4202899,45.6108993 98.1830138,48.1907013 96.3270996,50.1513508 Z" stroke="#FFFFFF" stroke-width="6" stroke-linecap="round" stroke-linejoin="round"></path>
                <polyline id="open" stroke="#FFFFFF" stroke-width="6" stroke-linecap="round" stroke-linejoin="round" points="49.7101449 63.9767442 35.5072464 63.9767442 35.5072464 49.7596899"></polyline>
                <polyline id="close" stroke="#FFFFFF" stroke-width="6" stroke-linecap="round" stroke-linejoin="round" points="71.0144928 43.6666667 71.0144928 29.4496124 56.8115942 29.4496124"></polyline>
                <path d="M46.6666667,33.5116279 L60.8695652,60.9302326" id="slash" stroke="#FFFFFF" stroke-width="6" stroke-linecap="round" stroke-linejoin="round"></path>
                <ellipse id="Oval" fill="#FFFFFF" cx="85.7246377" cy="13.7093023" rx="4.56521739" ry="4.56976744"></ellipse>
            </g>
        </g>
    </g>
</svg>